<svg width="27" height="18" viewBox="0 0 27 18" fill="none" xmlns="http://www.w3.org/2000/svg">
<path fill-rule="evenodd" clip-rule="evenodd" d="M24.9664 0.533203H23.406C22.5442 0.533203 21.8456 1.24411 21.8456 2.12106V15.8825C21.8456 16.7595 22.5442 17.4704 23.406 17.4704H24.9664C25.8281 17.4704 26.5267 16.7595 26.5267 15.8825V2.12106C26.5267 1.24411 25.8281 0.533203 24.9664 0.533203ZM16.1241 4.23816H17.6845C18.5463 4.23816 19.2449 4.94907 19.2449 5.82602V15.8825C19.2449 16.7594 18.5463 17.4703 17.6845 17.4703H16.1241C15.2623 17.4703 14.5637 16.7594 14.5637 15.8825V5.82602C14.5637 4.94907 15.2623 4.23816 16.1241 4.23816ZM10.4026 7.94324H8.8422C7.98041 7.94324 7.2818 8.65415 7.2818 9.5311V15.8825C7.2818 16.7595 7.98041 17.4704 8.8422 17.4704H10.4026C11.2644 17.4704 11.963 16.7595 11.963 15.8825V9.5311C11.963 8.65415 11.2644 7.94324 10.4026 7.94324ZM3.12079 11.1189H1.56039C0.698613 11.1189 0 11.8298 0 12.7068V15.8825C0 16.7594 0.698613 17.4703 1.56039 17.4703H3.12079C3.98257 17.4703 4.68118 16.7594 4.68118 15.8825V12.7068C4.68118 11.8298 3.98257 11.1189 3.12079 11.1189Z" fill="white"/>
</svg>
