<svg width="28" height="29" viewBox="0 0 28 29" fill="none" xmlns="http://www.w3.org/2000/svg">
<g opacity="0.3" clip-path="url(#clip0_1524_491)">
<path d="M10.5002 26.1663C11.1445 26.1663 11.6668 25.644 11.6668 24.9997C11.6668 24.3553 11.1445 23.833 10.5002 23.833C9.85583 23.833 9.3335 24.3553 9.3335 24.9997C9.3335 25.644 9.85583 26.1663 10.5002 26.1663Z" stroke="#25282B" stroke-width="2" stroke-linecap="round" stroke-linejoin="round"/>
<path d="M23.3332 26.1663C23.9775 26.1663 24.4998 25.644 24.4998 24.9997C24.4998 24.3553 23.9775 23.833 23.3332 23.833C22.6888 23.833 22.1665 24.3553 22.1665 24.9997C22.1665 25.644 22.6888 26.1663 23.3332 26.1663Z" stroke="#25282B" stroke-width="2" stroke-linecap="round" stroke-linejoin="round"/>
<path d="M1.1665 1.66699H5.83317L8.95984 17.2887C9.06652 17.8258 9.35873 18.3083 9.78531 18.6517C10.2119 18.9951 10.7457 19.1775 11.2932 19.167H22.6332C23.1807 19.1775 23.7145 18.9951 24.141 18.6517C24.5676 18.3083 24.8598 17.8258 24.9665 17.2887L26.8332 7.50033H6.99984" stroke="#25282B" stroke-width="2" stroke-linecap="round" stroke-linejoin="round"/>
</g>
<defs>
<clipPath id="clip0_1524_491">
<rect width="28" height="28" fill="white" transform="translate(0 0.5)"/>
</clipPath>
</defs>
</svg>
