<svg width="25" height="18" viewBox="0 0 25 18" fill="none" xmlns="http://www.w3.org/2000/svg">
<path fill-rule="evenodd" clip-rule="evenodd" d="M12.2923 3.62743C15.7637 3.62758 19.1024 4.98379 21.6183 7.41574C21.8078 7.60349 22.1106 7.60112 22.2972 7.41043L24.1082 5.55211C24.2027 5.45539 24.2554 5.32438 24.2546 5.18806C24.2538 5.05174 24.1996 4.92137 24.104 4.82577C17.5006 -1.60859 7.08289 -1.60859 0.479436 4.82577C0.38378 4.92129 0.329506 5.05163 0.328624 5.18795C0.327742 5.32427 0.380325 5.45532 0.474736 5.55211L2.28627 7.41043C2.47274 7.60141 2.7758 7.60378 2.96514 7.41574C5.48137 4.98363 8.82046 3.62742 12.2923 3.62743ZM12.2923 9.67335C14.1997 9.67324 16.0389 10.394 17.4528 11.6957C17.644 11.8805 17.9452 11.8765 18.1316 11.6867L19.9406 9.82839C20.0358 9.73092 20.0887 9.59869 20.0873 9.46128C20.0859 9.32387 20.0304 9.19276 19.9332 9.09728C15.6279 5.02535 8.96042 5.02535 4.65504 9.09728C4.55779 9.19276 4.5023 9.32394 4.50102 9.46139C4.49975 9.59884 4.55279 9.73106 4.64825 9.82839L6.45665 11.6867C6.64306 11.8765 6.94429 11.8805 7.13552 11.6957C8.54841 10.3949 10.3862 9.67416 12.2923 9.67335ZM15.9159 13.7412C15.9186 13.879 15.8654 14.0118 15.7686 14.1084L12.6395 17.319C12.5478 17.4134 12.4228 17.4665 12.2923 17.4665C12.1618 17.4665 12.0367 17.4134 11.945 17.319L8.81542 14.1084C8.71874 14.0117 8.66556 13.8789 8.66842 13.7411C8.67129 13.6033 8.72995 13.4728 8.83056 13.3804C10.8289 11.6619 13.7556 11.6619 15.754 13.3804C15.8545 13.4729 15.9131 13.6034 15.9159 13.7412Z" fill="white"/>
</svg>
