<svg width="60" height="64" viewBox="0 0 60 64" fill="none" xmlns="http://www.w3.org/2000/svg">
<path d="M42 13.333C42 22.6663 30 30.6663 30 30.6663C30 30.6663 18 22.6663 18 13.333C18 10.1504 19.2643 7.09816 21.5147 4.84773C23.7652 2.59729 26.8174 1.33301 30 1.33301C33.1826 1.33301 36.2348 2.59729 38.4853 4.84773C40.7357 7.09816 42 10.1504 42 13.333Z" stroke="white" stroke-width="2" stroke-linecap="round" stroke-linejoin="round"/>
<path d="M30 17.333C32.2091 17.333 34 15.5421 34 13.333C34 11.1239 32.2091 9.33301 30 9.33301C27.7909 9.33301 26 11.1239 26 13.333C26 15.5421 27.7909 17.333 30 17.333Z" stroke="white" stroke-width="2" stroke-linecap="round" stroke-linejoin="round"/>
<path d="M16.6514 46.4023H12.4814L11.5449 49H10.1914L13.9922 39.0469H15.1406L18.9482 49H17.6016L16.6514 46.4023ZM12.8779 45.3223H16.2617L14.5664 40.667L12.8779 45.3223ZM20.0283 47.9678L20.4658 47.4277C20.958 46.7897 21.2383 45.8327 21.3066 44.5566L21.4229 41.6035H26.1875V47.9678H27.1377V51.1738H25.873V49H20.7119V51.1738H19.4473L19.4541 47.9678H20.0283ZM21.5254 47.9678H24.9229V42.7725H22.6465L22.5713 44.5361C22.4938 46.0081 22.1452 47.152 21.5254 47.9678ZM34.7871 45.3838C34.7871 46.5094 34.5296 47.4163 34.0146 48.1045C33.4997 48.7926 32.8024 49.1367 31.9229 49.1367C31.0251 49.1367 30.3187 48.8519 29.8037 48.2822V51.8438H28.5391V41.6035H29.6943L29.7559 42.4238C30.2708 41.7858 30.9863 41.4668 31.9023 41.4668C32.791 41.4668 33.4928 41.8018 34.0078 42.4717C34.5273 43.1416 34.7871 44.0736 34.7871 45.2676V45.3838ZM33.5225 45.2402C33.5225 44.4062 33.3447 43.7477 32.9893 43.2646C32.6338 42.7816 32.1462 42.54 31.5264 42.54C30.7607 42.54 30.1865 42.8796 29.8037 43.5586V47.0928C30.182 47.7673 30.7607 48.1045 31.54 48.1045C32.1462 48.1045 32.627 47.8652 32.9824 47.3867C33.3424 46.9036 33.5225 46.1882 33.5225 45.2402ZM39.4697 49.1367C38.4671 49.1367 37.6514 48.8086 37.0225 48.1523C36.3936 47.4915 36.0791 46.6097 36.0791 45.5068V45.2744C36.0791 44.5407 36.2181 43.8867 36.4961 43.3125C36.7786 42.7337 37.1706 42.2826 37.6719 41.959C38.1777 41.6309 38.7246 41.4668 39.3125 41.4668C40.2741 41.4668 41.0215 41.7835 41.5547 42.417C42.0879 43.0505 42.3545 43.9574 42.3545 45.1377V45.6641H37.3438C37.362 46.3932 37.5739 46.9834 37.9795 47.4346C38.3896 47.8812 38.9092 48.1045 39.5381 48.1045C39.9847 48.1045 40.363 48.0133 40.6729 47.8311C40.9827 47.6488 41.2539 47.4072 41.4863 47.1064L42.2588 47.708C41.639 48.6605 40.7093 49.1367 39.4697 49.1367ZM39.3125 42.5059C38.8021 42.5059 38.3737 42.6927 38.0273 43.0664C37.681 43.4355 37.4668 43.9551 37.3848 44.625H41.0898V44.5293C41.0534 43.8867 40.8802 43.39 40.5703 43.0391C40.2604 42.6836 39.8411 42.5059 39.3125 42.5059ZM46.791 48.1045C47.2422 48.1045 47.6364 47.9678 47.9736 47.6943C48.3109 47.4209 48.4977 47.0791 48.5342 46.6689H49.7305C49.7077 47.0928 49.5618 47.4961 49.293 47.8789C49.0241 48.2617 48.6641 48.5671 48.2129 48.7949C47.7663 49.0228 47.2923 49.1367 46.791 49.1367C45.7839 49.1367 44.9818 48.8018 44.3848 48.1318C43.7923 47.4574 43.4961 46.5368 43.4961 45.3701V45.1582C43.4961 44.4382 43.6283 43.7979 43.8926 43.2373C44.1569 42.6768 44.5352 42.2415 45.0273 41.9316C45.5241 41.6217 46.1097 41.4668 46.7842 41.4668C47.6136 41.4668 48.3018 41.7152 48.8486 42.2119C49.4001 42.7087 49.694 43.3535 49.7305 44.1465H48.5342C48.4977 43.668 48.3154 43.276 47.9873 42.9707C47.6637 42.6608 47.2627 42.5059 46.7842 42.5059C46.1416 42.5059 45.6426 42.7383 45.2871 43.2031C44.9362 43.6634 44.7607 44.3311 44.7607 45.2061V45.4453C44.7607 46.2975 44.9362 46.9538 45.2871 47.4141C45.638 47.8743 46.1393 48.1045 46.791 48.1045Z" fill="white"/>
</svg>
