<svg width="60" height="64" viewBox="0 0 60 64" fill="none" xmlns="http://www.w3.org/2000/svg">
<path d="M40.6666 28V25.3333C40.6666 23.9188 40.1047 22.5623 39.1045 21.5621C38.1043 20.5619 36.7477 20 35.3333 20H24.6666C23.2521 20 21.8955 20.5619 20.8953 21.5621C19.8952 22.5623 19.3333 23.9188 19.3333 25.3333V28" stroke="white" stroke-width="2" stroke-linecap="round" stroke-linejoin="round"/>
<path d="M30.0001 14.6667C32.9456 14.6667 35.3334 12.2789 35.3334 9.33333C35.3334 6.38781 32.9456 4 30.0001 4C27.0546 4 24.6667 6.38781 24.6667 9.33333C24.6667 12.2789 27.0546 14.6667 30.0001 14.6667Z" stroke="white" stroke-width="2" stroke-linecap="round" stroke-linejoin="round"/>
<path d="M11.1553 49V39.0469H14.4092C15.4893 39.0469 16.3005 39.2702 16.8428 39.7168C17.3896 40.1634 17.6631 40.8242 17.6631 41.6992C17.6631 42.1641 17.5309 42.5765 17.2666 42.9365C17.0023 43.292 16.6423 43.5677 16.1865 43.7637C16.7243 43.9141 17.1481 44.2012 17.458 44.625C17.7725 45.0443 17.9297 45.5456 17.9297 46.1289C17.9297 47.0221 17.6403 47.724 17.0615 48.2344C16.4827 48.7448 15.6647 49 14.6074 49H11.1553ZM12.4678 44.3447V47.9268H14.6348C15.2454 47.9268 15.7262 47.7695 16.0771 47.4551C16.4326 47.1361 16.6104 46.6986 16.6104 46.1426C16.6104 44.944 15.9587 44.3447 14.6553 44.3447H12.4678ZM12.4678 43.292H14.4502C15.0244 43.292 15.4824 43.1484 15.8242 42.8613C16.1706 42.5742 16.3438 42.1846 16.3438 41.6924C16.3438 41.1455 16.1842 40.749 15.8652 40.5029C15.5462 40.2523 15.0609 40.127 14.4092 40.127H12.4678V43.292ZM19.3447 45.2334C19.3447 44.5088 19.486 43.8571 19.7686 43.2783C20.0557 42.6995 20.4521 42.2529 20.958 41.9385C21.4684 41.624 22.0495 41.4668 22.7012 41.4668C23.7083 41.4668 24.5218 41.8154 25.1416 42.5127C25.766 43.21 26.0781 44.1374 26.0781 45.2949V45.3838C26.0781 46.1038 25.9391 46.751 25.6611 47.3252C25.3877 47.8949 24.9935 48.3392 24.4785 48.6582C23.9681 48.9772 23.3802 49.1367 22.7148 49.1367C21.7122 49.1367 20.8988 48.7881 20.2744 48.0908C19.6546 47.3936 19.3447 46.4707 19.3447 45.3223V45.2334ZM20.6162 45.3838C20.6162 46.2041 20.8053 46.8626 21.1836 47.3594C21.5664 47.8561 22.0768 48.1045 22.7148 48.1045C23.3574 48.1045 23.8678 47.8538 24.2461 47.3525C24.6243 46.8467 24.8135 46.1403 24.8135 45.2334C24.8135 44.4222 24.6198 43.766 24.2324 43.2646C23.8496 42.7588 23.3392 42.5059 22.7012 42.5059C22.0768 42.5059 21.5732 42.7542 21.1904 43.251C20.8076 43.7477 20.6162 44.4587 20.6162 45.3838ZM32.4492 41.6035H33.7139V49H32.4492V43.6064L29.0381 49H27.7734V41.6035H29.0381V47.0039L32.4492 41.6035ZM32.791 38.9102C32.791 39.4616 32.6019 39.9059 32.2236 40.2432C31.8499 40.5758 31.3577 40.7422 30.7471 40.7422C30.1364 40.7422 29.6419 40.5736 29.2637 40.2363C28.8854 39.8991 28.6963 39.457 28.6963 38.9102H29.7285C29.7285 39.2292 29.8151 39.4798 29.9883 39.6621C30.1615 39.8398 30.4144 39.9287 30.7471 39.9287C31.0661 39.9287 31.3145 39.8398 31.4922 39.6621C31.6745 39.4844 31.7656 39.2337 31.7656 38.9102H32.791ZM41.2402 42.6289H38.7588V49H37.4941V42.6289H35.0605V41.6035H41.2402V42.6289ZM47.2559 41.6035H48.5205V49H47.2559V43.6064L43.8447 49H42.5801V41.6035H43.8447V47.0039L47.2559 41.6035Z" fill="white"/>
</svg>
