<svg width="60" height="64" viewBox="0 0 60 64" fill="none" xmlns="http://www.w3.org/2000/svg">
<path d="M26.0001 29.3337C26.7365 29.3337 27.3334 28.7367 27.3334 28.0003C27.3334 27.2639 26.7365 26.667 26.0001 26.667C25.2637 26.667 24.6667 27.2639 24.6667 28.0003C24.6667 28.7367 25.2637 29.3337 26.0001 29.3337Z" stroke="white" stroke-width="2" stroke-linecap="round" stroke-linejoin="round"/>
<path d="M40.6666 29.3337C41.403 29.3337 41.9999 28.7367 41.9999 28.0003C41.9999 27.2639 41.403 26.667 40.6666 26.667C39.9302 26.667 39.3333 27.2639 39.3333 28.0003C39.3333 28.7367 39.9302 29.3337 40.6666 29.3337Z" stroke="white" stroke-width="2" stroke-linecap="round" stroke-linejoin="round"/>
<path d="M15.3333 1.33301H20.6666L24.2399 19.1863C24.3618 19.8002 24.6958 20.3516 25.1833 20.7441C25.6708 21.1365 26.2808 21.345 26.9066 21.333H39.8666C40.4923 21.345 41.1023 21.1365 41.5899 20.7441C42.0774 20.3516 42.4113 19.8002 42.5332 19.1863L44.6666 7.99967H21.9999" stroke="white" stroke-width="2" stroke-linecap="round" stroke-linejoin="round"/>
<path d="M5.73926 44.5293H4.5293V49H3.2168V39.0469H4.5293V43.4355H5.55469L9.03418 39.0469H10.668L6.86719 43.873L10.9482 49H9.3418L5.73926 44.5293ZM11.4268 45.2334C11.4268 44.5088 11.568 43.8571 11.8506 43.2783C12.1377 42.6995 12.5342 42.2529 13.04 41.9385C13.5505 41.624 14.1315 41.4668 14.7832 41.4668C15.7904 41.4668 16.6038 41.8154 17.2236 42.5127C17.848 43.21 18.1602 44.1374 18.1602 45.2949V45.3838C18.1602 46.1038 18.0212 46.751 17.7432 47.3252C17.4697 47.8949 17.0755 48.3392 16.5605 48.6582C16.0501 48.9772 15.4622 49.1367 14.7969 49.1367C13.7943 49.1367 12.9808 48.7881 12.3564 48.0908C11.7367 47.3936 11.4268 46.4707 11.4268 45.3223V45.2334ZM12.6982 45.3838C12.6982 46.2041 12.8874 46.8626 13.2656 47.3594C13.6484 47.8561 14.1589 48.1045 14.7969 48.1045C15.4395 48.1045 15.9499 47.8538 16.3281 47.3525C16.7064 46.8467 16.8955 46.1403 16.8955 45.2334C16.8955 44.4222 16.7018 43.766 16.3145 43.2646C15.9316 42.7588 15.4212 42.5059 14.7832 42.5059C14.1589 42.5059 13.6553 42.7542 13.2725 43.251C12.8896 43.7477 12.6982 44.4587 12.6982 45.3838ZM25.9941 45.3838C25.9941 46.5094 25.7367 47.4163 25.2217 48.1045C24.7067 48.7926 24.0094 49.1367 23.1299 49.1367C22.2321 49.1367 21.5257 48.8519 21.0107 48.2822V51.8438H19.7461V41.6035H20.9014L20.9629 42.4238C21.4779 41.7858 22.1934 41.4668 23.1094 41.4668C23.998 41.4668 24.6999 41.8018 25.2148 42.4717C25.7344 43.1416 25.9941 44.0736 25.9941 45.2676V45.3838ZM24.7295 45.2402C24.7295 44.4062 24.5518 43.7477 24.1963 43.2646C23.8408 42.7816 23.3532 42.54 22.7334 42.54C21.9678 42.54 21.3936 42.8796 21.0107 43.5586V47.0928C21.389 47.7673 21.9678 48.1045 22.7471 48.1045C23.3532 48.1045 23.834 47.8652 24.1895 47.3867C24.5495 46.9036 24.7295 46.1882 24.7295 45.2402ZM31.6748 43.627C31.6748 43.2806 31.5426 43.0072 31.2783 42.8066C31.014 42.6016 30.6517 42.499 30.1914 42.499C29.7448 42.499 29.3711 42.6152 29.0703 42.8477C28.7741 43.0801 28.626 43.3535 28.626 43.668H27.3682C27.3682 43.0254 27.637 42.499 28.1748 42.0889C28.7126 41.6787 29.3848 41.4736 30.1914 41.4736C31.0573 41.4736 31.7318 41.6605 32.2148 42.0342C32.6979 42.4033 32.9395 42.932 32.9395 43.6201C32.9395 43.9528 32.8392 44.2581 32.6387 44.5361C32.4382 44.8141 32.1533 45.0352 31.7842 45.1992C32.6455 45.4909 33.0762 46.0651 33.0762 46.9219C33.0762 47.6009 32.8141 48.1387 32.29 48.5352C31.766 48.9316 31.0664 49.1299 30.1914 49.1299C29.3392 49.1299 28.6351 48.9225 28.0791 48.5078C27.5277 48.0885 27.252 47.5234 27.252 46.8125H28.5098C28.5098 47.1725 28.6693 47.4824 28.9883 47.7422C29.3118 47.9974 29.7129 48.125 30.1914 48.125C30.6745 48.125 31.0641 48.0133 31.3604 47.79C31.6566 47.5667 31.8047 47.2773 31.8047 46.9219C31.8047 46.5072 31.6794 46.2109 31.4287 46.0332C31.1826 45.8509 30.7975 45.7598 30.2734 45.7598H29.0088V44.6934H30.3828C31.2441 44.6706 31.6748 44.3151 31.6748 43.627ZM39.502 41.6035H40.7666V49H39.502V43.6064L36.0908 49H34.8262V41.6035H36.0908V47.0039L39.502 41.6035ZM48.8398 49H47.5752V45.8418H44.1777V49H42.9062V41.6035H44.1777V44.8096H47.5752V41.6035H48.8398V49ZM55.4434 49C55.3704 48.8542 55.3112 48.5944 55.2656 48.2207C54.6777 48.8314 53.9759 49.1367 53.1602 49.1367C52.431 49.1367 51.8317 48.9316 51.3623 48.5215C50.8975 48.1068 50.665 47.5827 50.665 46.9492C50.665 46.179 50.9567 45.582 51.54 45.1582C52.1279 44.7298 52.9528 44.5156 54.0146 44.5156H55.2451V43.9346C55.2451 43.4925 55.113 43.1416 54.8486 42.8818C54.5843 42.6175 54.1947 42.4854 53.6797 42.4854C53.2285 42.4854 52.8503 42.5993 52.5449 42.8271C52.2396 43.055 52.0869 43.3307 52.0869 43.6543H50.8154C50.8154 43.2852 50.9453 42.9297 51.2051 42.5879C51.4694 42.2415 51.8249 41.9681 52.2715 41.7676C52.7227 41.5671 53.2171 41.4668 53.7549 41.4668C54.6071 41.4668 55.2747 41.681 55.7578 42.1094C56.2409 42.5332 56.4915 43.1188 56.5098 43.8662V47.2705C56.5098 47.9495 56.5964 48.4896 56.7695 48.8906V49H55.4434ZM53.3447 48.0361C53.7412 48.0361 54.1172 47.9336 54.4727 47.7285C54.8281 47.5234 55.0856 47.2568 55.2451 46.9287V45.4111H54.2539C52.7044 45.4111 51.9297 45.8646 51.9297 46.7715C51.9297 47.168 52.0618 47.4779 52.3262 47.7012C52.5905 47.9245 52.93 48.0361 53.3447 48.0361Z" fill="white"/>
</svg>
